<?xml version="1.0" encoding="UTF-8"?>
<!DOCTYPE svg PUBLIC "-//W3C//DTD SVG 1.1//EN" "http://www.w3.org/Graphics/SVG/1.1/DTD/svg11.dtd">
  
<svg xmlns="http://www.w3.org/2000/svg" version="1.1" width="598px" height="417px" style="shape-rendering:geometricPrecision; text-rendering:geometricPrecision; image-rendering:optimizeQuality; fill-rule:evenodd; clip-rule:evenodd" xmlns:xlink="http://www.w3.org/1999/xlink">
  
<g><path style="opacity:0.12" fill="#050505" d="M 211.5,100.5 C 211.207,107.255 211.54,113.922 212.5,120.5C 216.103,146.613 227.769,168.446 247.5,186C 251.217,189.385 255.217,192.385 259.5,195C 262.11,196.481 264.777,197.648 267.5,198.5C 277.026,204.045 287.36,207.378 298.5,208.5C 307.991,209.658 317.658,209.825 327.5,209C 329.058,208.79 330.391,208.29 331.5,207.5C 334.568,207.453 337.568,206.953 340.5,206C 358.211,200.785 373.544,191.618 386.5,178.5C 407.803,156.183 416.97,129.516 414,98.5C 413.667,94.5 413.333,90.5 413,86.5C 412.295,83.5243 411.129,80.8577 409.5,78.5C 403.23,58.8996 391.897,42.8996 375.5,30.5C 358.527,15.245 338.527,7.91165 315.5,8.5C 308.152,8.65596 300.819,8.9893 293.5,9.5C 349.283,0.643679 389.783,21.6437 415,72.5C 429.055,111.713 423.388,147.713 398,180.5C 358.01,220.644 312.51,228.144 261.5,203C 224.578,178.658 207.912,144.491 211.5,100.5 Z"/></g>
<g><path style="opacity:1" fill="#f9f9f9" d="M 375.5,30.5 C 391.897,42.8996 403.23,58.8996 409.5,78.5C 409.649,79.552 409.483,80.552 409,81.5C 407.853,80.5419 406.853,80.8753 406,82.5C 403.257,79.1467 400.09,78.6467 396.5,81C 397.198,81.9707 397.198,83.1374 396.5,84.5C 397.169,87.0278 398.002,87.0278 399,84.5C 399.748,86.3325 400.748,87.9991 402,89.5C 402.333,89.1667 402.667,88.8333 403,88.5C 404.739,90.2834 406.572,91.9501 408.5,93.5C 409.258,92.1886 410.258,91.6886 411.5,92C 410.993,95.2427 411.659,98.4094 413.5,101.5C 413.167,102.167 412.833,102.833 412.5,103.5C 411.571,102.311 411.238,100.978 411.5,99.5C 408.652,98.343 406.152,98.6763 404,100.5C 401.904,99.2845 402.071,98.4512 404.5,98C 403.675,96.3117 402.675,96.1451 401.5,97.5C 400.833,96.8333 400.167,96.1667 399.5,95.5C 398.575,96.6405 397.741,96.6405 397,95.5C 396.544,96.7441 397.044,97.5774 398.5,98C 397.833,98.3333 397.167,98.6667 396.5,99C 397.649,100.604 397.649,102.27 396.5,104C 396.63,105.059 397.13,105.892 398,106.5C 400.829,105.326 401.829,106.326 401,109.5C 400.333,106.833 399.667,106.833 399,109.5C 398.333,106.833 397.667,106.833 397,109.5C 396.581,108.328 395.915,107.328 395,106.5C 393.951,107.517 392.784,107.684 391.5,107C 391.833,106.667 392.167,106.333 392.5,106C 391.295,104.729 389.962,104.063 388.5,104C 388.957,104.414 389.291,104.914 389.5,105.5C 383.1,111.854 383.766,116.854 391.5,120.5C 390.91,121.799 389.91,122.632 388.5,123C 389.167,123.333 389.833,123.667 390.5,124C 389.167,124.667 389.167,125.333 390.5,126C 388.998,126.583 387.665,127.416 386.5,128.5C 387.522,129.354 388.355,130.354 389,131.5C 389.763,128.937 390.263,128.937 390.5,131.5C 387.956,133.611 387.956,135.778 390.5,138C 388.167,139.243 387.5,140.909 388.5,143C 387.833,143.333 387.167,143.667 386.5,144C 393.002,147.148 393.002,148.982 386.5,149.5C 385.188,153.141 384.021,152.807 383,148.5C 380.947,151.454 379.447,154.288 378.5,157C 377.167,156.333 375.833,155.667 374.5,155C 372.833,158 370.5,160.333 367.5,162C 368.711,162.893 368.711,163.726 367.5,164.5C 366.313,163.347 365.313,163.347 364.5,164.5C 363.883,164.389 363.383,164.056 363,163.5C 361.656,165.342 360.156,167.008 358.5,168.5C 357.572,166.665 356.406,166.332 355,167.5C 355.218,165.413 355.051,163.413 354.5,161.5C 354.323,164.078 353.157,164.078 351,161.5C 350.273,163.953 349.273,166.286 348,168.5C 347.148,167.429 346.315,166.429 345.5,165.5C 345.062,165.565 344.728,165.399 344.5,165C 348.299,163.447 348.299,162.114 344.5,161C 347.846,159.436 350.679,157.269 353,154.5C 353.667,153.833 353.667,153.167 353,152.5C 352.107,153.711 351.274,153.711 350.5,152.5C 355.755,149.684 355.422,147.351 349.5,145.5C 350.326,144.549 350.492,143.549 350,142.5C 348.853,143.458 347.853,143.125 347,141.5C 346.667,142.167 346.333,142.833 346,143.5C 345.667,141.833 345.333,140.167 345,138.5C 342.586,140.291 340.086,141.957 337.5,143.5C 337.977,144.478 338.643,145.311 339.5,146C 336.833,146.667 336.833,147.333 339.5,148C 334.701,150.565 333.367,149.898 335.5,146C 335.167,145.167 334.833,144.333 334.5,143.5C 333.243,145.679 331.743,147.679 330,149.5C 328.493,148.495 327.327,147.162 326.5,145.5C 324.766,147.234 323.432,149.234 322.5,151.5C 321.147,150.315 319.98,148.981 319,147.5C 318.5,148.667 317.667,149.5 316.5,150C 318.425,151.502 319.592,153.002 320,154.5C 321.606,152.016 323.106,152.016 324.5,154.5C 325.167,153.833 325.833,153.167 326.5,152.5C 327.685,153.853 329.019,155.02 330.5,156C 329.346,156.914 329.513,157.747 331,158.5C 331.308,157.692 331.808,157.025 332.5,156.5C 333.425,157.641 334.259,157.641 335,156.5C 334.431,158.552 333.431,160.552 332,162.5C 331.751,161.376 331.251,160.376 330.5,159.5C 329.575,160.641 328.741,160.641 328,159.5C 327.751,160.624 327.251,161.624 326.5,162.5C 324.56,160.955 323.394,158.955 323,156.5C 322.581,157.672 321.915,158.672 321,159.5C 321.263,158.049 321.096,156.716 320.5,155.5C 319.914,155.709 319.414,156.043 319,156.5C 317.587,154.586 315.753,153.253 313.5,152.5C 312.167,156.5 310.833,156.5 309.5,152.5C 307.191,153.933 305.691,153.266 305,150.5C 303.983,153.028 302.816,153.028 301.5,150.5C 301.687,151.817 301.02,153.15 299.5,154.5C 298.944,152.491 297.611,150.491 295.5,148.5C 294.416,149.665 293.583,150.998 293,152.5C 292.16,149.536 291.16,149.203 290,151.5C 287.454,147.884 285.121,148.218 283,152.5C 282.5,151.333 281.667,150.5 280.5,150C 281.167,149.667 281.833,149.333 282.5,149C 281.167,147.363 279.834,146.529 278.5,146.5C 278.015,144.223 278.681,142.056 280.5,140C 278.199,137.997 278.199,136.163 280.5,134.5C 278.663,131.023 276.496,131.023 274,134.5C 274.112,132.822 274.612,131.155 275.5,129.5C 275.167,128.833 274.833,128.167 274.5,127.5C 273.833,128.5 273.167,129.5 272.5,130.5C 270.939,128.447 269.606,126.28 268.5,124C 271.282,121.041 273.949,117.874 276.5,114.5C 274.684,112.882 273.351,110.882 272.5,108.5C 271.749,109.376 271.249,110.376 271,111.5C 270.346,110.304 269.846,110.304 269.5,111.5C 270.833,112.5 272.167,113.5 273.5,114.5C 272.672,115.415 271.672,116.081 270.5,116.5C 269.139,114.972 267.972,113.305 267,111.5C 265.521,116.665 263.688,116.832 261.5,112C 264.167,111 264.167,110 261.5,109C 263.891,108.309 263.891,107.309 261.5,106C 265.293,105.261 266.126,103.428 264,100.5C 263.086,101.654 262.253,101.487 261.5,100C 262.167,99.6667 262.833,99.3333 263.5,99C 262.151,98.2276 261.318,97.0609 261,95.5C 260.385,97.1161 259.385,98.4495 258,99.5C 257.5,99 257,98.5 256.5,98C 257.71,96.9609 258.71,95.7942 259.5,94.5C 260.239,94.631 260.906,94.4643 261.5,94C 261.93,93.0805 262.264,92.2472 262.5,91.5C 263.167,92.5 263.833,93.5 264.5,94.5C 266.276,93.6852 266.943,92.5185 266.5,91C 268.709,89.3093 270.542,89.476 272,91.5C 272.333,91.1667 272.667,90.8333 273,90.5C 273.333,91.5 273.667,92.5 274,93.5C 275.789,93.3775 277.622,93.3775 279.5,93.5C 280.734,91.6017 280.401,89.935 278.5,88.5C 280.205,86.6973 282.038,86.0306 284,86.5C 284.318,84.9391 285.151,83.7724 286.5,83C 284.205,81.9384 283.539,80.4384 284.5,78.5C 285.927,76.8516 286.76,74.8516 287,72.5C 288,74.1667 289,75.8333 290,77.5C 290.448,75.7756 291.282,75.109 292.5,75.5C 290.019,74.1404 290.352,73.1404 293.5,72.5C 295.467,73.6816 296.8,73.0149 297.5,70.5C 298.251,71.376 298.751,72.376 299,73.5C 300.016,72.3659 300.683,72.6992 301,74.5C 301.741,73.3595 302.575,73.3595 303.5,74.5C 303.833,73.8333 304.167,73.1667 304.5,72.5C 303.547,70.5448 302.213,68.8782 300.5,67.5C 301.057,65.7648 301.39,64.0982 301.5,62.5C 302.167,63.8333 302.833,65.1667 303.5,66.5C 305.02,65.1501 305.687,63.8168 305.5,62.5C 306.189,65.4081 307.355,68.0748 309,70.5C 310.512,68.0426 311.846,68.0426 313,70.5C 314.667,70.1667 316.333,69.8333 318,69.5C 319.806,71.9519 321.306,71.6186 322.5,68.5C 323.281,69.7287 323.781,71.062 324,72.5C 324.923,71.2412 325.757,69.9079 326.5,68.5C 327.521,72.1522 329.188,72.4855 331.5,69.5C 329.675,67.3952 327.675,66.2285 325.5,66C 326.167,65.6667 326.833,65.3333 327.5,65C 325.667,63.8333 323.833,62.6667 322,61.5C 321.333,60.5 321.333,59.5 322,58.5C 322.333,58.8333 322.667,59.1667 323,59.5C 327.151,56.9238 329.651,53.5904 330.5,49.5C 331.814,50.3128 332.981,51.3128 334,52.5C 335.356,51.6198 336.856,51.2865 338.5,51.5C 338.5,52.5 338.5,53.5 338.5,54.5C 341.699,53.5677 344.865,53.5677 348,54.5C 349.011,54.1081 349.511,53.4415 349.5,52.5C 350.668,54.3969 352.335,54.5636 354.5,53C 353.643,52.3109 352.977,51.4776 352.5,50.5C 355.126,49.7071 356.96,48.0405 358,45.5C 361.003,46.09 364.003,46.4233 367,46.5C 368.826,45.9896 368.993,45.1562 367.5,44C 368.825,44.1484 369.992,43.9817 371,43.5C 371.753,46.8268 373.253,46.8268 375.5,43.5C 376.609,44.5896 377.609,44.5896 378.5,43.5C 377.631,41.1322 375.965,39.6322 373.5,39C 373.957,38.586 374.291,38.086 374.5,37.5C 372.501,35.5065 371.001,33.1732 370,30.5C 369.692,31.3081 369.192,31.9747 368.5,32.5C 365.63,31.878 362.796,31.2113 360,30.5C 359.312,31.3317 359.479,31.9984 360.5,32.5C 362.167,33.3333 363.833,34.1667 365.5,35C 362.768,35.1538 360.102,34.6538 357.5,33.5C 355.519,34.1054 355.185,35.1054 356.5,36.5C 355.311,37.4287 353.978,37.762 352.5,37.5C 352.881,35.0582 352.214,34.3915 350.5,35.5C 349.28,35.1131 348.613,34.2798 348.5,33C 349.509,32.6454 350.176,31.8121 350.5,30.5C 352.124,30.3601 353.29,31.0267 354,32.5C 354.667,29.8333 355.333,29.8333 356,32.5C 356.667,31.1667 357.333,29.8333 358,28.5C 359.537,28.9126 361.204,28.9126 363,28.5C 364.261,28.7591 365.261,29.4258 366,30.5C 368,29.8333 370,29.1667 372,28.5C 373.044,29.6226 373.71,30.9559 374,32.5C 374.278,31.5842 374.778,30.9175 375.5,30.5 Z"/></g>
<g><path style="opacity:0.976" fill="#f2f2f2" d="M 375.5,30.5 C 374.778,30.9175 374.278,31.5842 374,32.5C 373.71,30.9559 373.044,29.6226 372,28.5C 370,29.1667 368,29.8333 366,30.5C 365.261,29.4258 364.261,28.7591 363,28.5C 361.204,28.9126 359.537,28.9126 358,28.5C 357.333,29.8333 356.667,31.1667 356,32.5C 355.333,29.8333 354.667,29.8333 354,32.5C 353.29,31.0267 352.124,30.3601 350.5,30.5C 351.248,28.4159 351.248,26.4159 350.5,24.5C 347.682,23.1185 346.182,24.1185 346,27.5C 344.312,26.6753 344.145,25.6753 345.5,24.5C 342.972,23.4826 342.972,22.3159 345.5,21C 345.018,19.9916 344.852,18.825 345,17.5C 344.333,18.8333 343.667,18.8333 343,17.5C 342.751,18.624 342.251,19.624 341.5,20.5C 341.795,19.1745 341.295,17.8412 340,16.5C 337.327,16.8325 335.327,17.8325 334,19.5C 332.553,19.0548 331.22,18.3881 330,17.5C 329.055,17.9054 328.388,18.572 328,19.5C 325.731,17.1615 324.231,17.8282 323.5,21.5C 322.347,18.848 320.513,16.848 318,15.5C 317.333,18.1667 316.667,18.1667 316,15.5C 314.256,16.0362 312.423,16.3696 310.5,16.5C 309.749,15.624 309.249,14.624 309,13.5C 306.929,14.1029 305.762,15.4362 305.5,17.5C 304.5,17.5 303.5,17.5 302.5,17.5C 302.649,18.552 302.483,19.552 302,20.5C 301.667,20.1667 301.333,19.8333 301,19.5C 299.152,21.018 297.652,22.8513 296.5,25C 300.143,25.8115 302.477,27.9781 303.5,31.5C 305.777,31.0145 307.944,31.6812 310,33.5C 312.766,32.2682 315.599,31.2682 318.5,30.5C 318.771,31.5519 318.938,32.8853 319,34.5C 319.368,33.09 320.201,32.09 321.5,31.5C 321.06,32.9525 321.726,34.1192 323.5,35C 321.045,36.6413 318.545,38.1413 316,39.5C 316.077,38.2624 315.911,37.2624 315.5,36.5C 312.546,38.6555 309.212,39.8221 305.5,40C 306.051,41.3985 306.384,42.7318 306.5,44C 302.239,47.4948 301.572,46.8281 304.5,42C 300.337,41.6703 297.504,43.5036 296,47.5C 294.899,45.6061 293.566,44.9394 292,45.5C 290.829,46.8932 289.329,47.7265 287.5,48C 288.5,48.3333 289.5,48.6667 290.5,49C 288.833,50 287.167,51 285.5,52C 287.645,53.8175 287.645,55.3175 285.5,56.5C 284.289,55.7261 284.289,54.8928 285.5,54C 282.89,53.8528 280.556,53.0194 278.5,51.5C 277.914,51.7093 277.414,52.0426 277,52.5C 276.581,51.3279 275.915,50.3279 275,49.5C 273.387,50.6223 272.22,50.1223 271.5,48C 275.78,44.7313 275.447,43.5647 270.5,44.5C 269.614,45.325 269.281,46.325 269.5,47.5C 267.193,47.0137 265.027,47.0137 263,47.5C 262.289,45.6332 262.789,44.1332 264.5,43C 260.653,43.2646 257.653,45.0979 255.5,48.5C 255.709,49.086 256.043,49.586 256.5,50C 254.061,50.7739 252.227,52.2739 251,54.5C 249.833,53.3333 248.667,52.1667 247.5,51C 246.175,51.1484 245.008,50.9817 244,50.5C 242.256,51.6492 242.089,52.9825 243.5,54.5C 242.009,55.2436 240.509,55.9103 239,56.5C 237.431,60.9674 235.764,64.9674 234,68.5C 233.586,68.0426 233.086,67.7093 232.5,67.5C 229.901,70.0935 230.234,71.5935 233.5,72C 231.649,73.6742 229.982,74.8409 228.5,75.5C 229.497,77.8109 229.997,80.1443 230,82.5C 229.333,81.8333 228.667,81.1667 228,80.5C 227.837,82.676 227.004,84.5093 225.5,86C 226.056,86.3826 226.389,86.8826 226.5,87.5C 226.121,92.3604 224.454,97.0271 221.5,101.5C 222.791,102.527 222.791,103.527 221.5,104.5C 220.636,105.688 219.636,106.855 218.5,108C 219.779,114.079 219.779,120.413 218.5,127C 219.094,127.464 219.761,127.631 220.5,127.5C 219.748,130.747 219.248,134.081 219,137.5C 218.426,135.508 217.259,134.008 215.5,133C 218.013,130.59 217.679,128.424 214.5,126.5C 217.131,124.995 216.797,124.329 213.5,124.5C 213.768,122.901 213.434,121.568 212.5,120.5C 211.54,113.922 211.207,107.255 211.5,100.5C 211.753,96.9601 212.419,93.6267 213.5,90.5C 215.163,88.5615 215.829,86.2282 215.5,83.5C 224.556,51.6051 244.223,28.7718 274.5,15C 280.582,12.2497 286.916,10.4164 293.5,9.5C 300.819,8.9893 308.152,8.65596 315.5,8.5C 338.527,7.91165 358.527,15.245 375.5,30.5 Z"/></g>
<g><path style="opacity:1" fill="#d0d0d0" d="M 305.5,17.5 C 308.722,17.1081 311.722,17.6081 314.5,19C 313.833,19.3333 313.167,19.6667 312.5,20C 320.014,20.6362 322.014,24.1362 318.5,30.5C 315.599,31.2682 312.766,32.2682 310,33.5C 307.944,31.6812 305.777,31.0145 303.5,31.5C 302.477,27.9781 300.143,25.8115 296.5,25C 297.652,22.8513 299.152,21.018 301,19.5C 301.333,19.8333 301.667,20.1667 302,20.5C 302.483,19.552 302.649,18.552 302.5,17.5C 303.5,17.5 304.5,17.5 305.5,17.5 Z"/></g>
<g><path style="opacity:1" fill="#e5e7e6" d="M 350.5,30.5 C 350.176,31.8121 349.509,32.6454 348.5,33C 348.613,34.2798 349.28,35.1131 350.5,35.5C 352.214,34.3915 352.881,35.0582 352.5,37.5C 353.978,37.762 355.311,37.4287 356.5,36.5C 355.185,35.1054 355.519,34.1054 357.5,33.5C 360.102,34.6538 362.768,35.1538 365.5,35C 363.833,34.1667 362.167,33.3333 360.5,32.5C 359.479,31.9984 359.312,31.3317 360,30.5C 362.796,31.2113 365.63,31.878 368.5,32.5C 369.192,31.9747 369.692,31.3081 370,30.5C 371.001,33.1732 372.501,35.5065 374.5,37.5C 374.291,38.086 373.957,38.586 373.5,39C 375.965,39.6322 377.631,41.1322 378.5,43.5C 377.609,44.5896 376.609,44.5896 375.5,43.5C 373.253,46.8268 371.753,46.8268 371,43.5C 369.992,43.9817 368.825,44.1484 367.5,44C 368.993,45.1562 368.826,45.9896 367,46.5C 364.003,46.4233 361.003,46.09 358,45.5C 356.96,48.0405 355.126,49.7071 352.5,50.5C 352.977,51.4776 353.643,52.3109 354.5,53C 352.335,54.5636 350.668,54.3969 349.5,52.5C 349.511,53.4415 349.011,54.1081 348,54.5C 344.865,53.5677 341.699,53.5677 338.5,54.5C 338.5,53.5 338.5,52.5 338.5,51.5C 336.856,51.2865 335.356,51.6198 334,52.5C 332.981,51.3128 331.814,50.3128 330.5,49.5C 329.651,53.5904 327.151,56.9238 323,59.5C 322.667,59.1667 322.333,58.8333 322,58.5C 321.333,59.5 321.333,60.5 322,61.5C 323.833,62.6667 325.667,63.8333 327.5,65C 326.833,65.3333 326.167,65.6667 325.5,66C 327.675,66.2285 329.675,67.3952 331.5,69.5C 329.188,72.4855 327.521,72.1522 326.5,68.5C 325.757,69.9079 324.923,71.2412 324,72.5C 323.781,71.062 323.281,69.7287 322.5,68.5C 321.306,71.6186 319.806,71.9519 318,69.5C 316.333,69.8333 314.667,70.1667 313,70.5C 311.846,68.0426 310.512,68.0426 309,70.5C 307.355,68.0748 306.189,65.4081 305.5,62.5C 305.687,63.8168 305.02,65.1501 303.5,66.5C 302.833,65.1667 302.167,63.8333 301.5,62.5C 301.39,64.0982 301.057,65.7648 300.5,67.5C 302.213,68.8782 303.547,70.5448 304.5,72.5C 304.167,73.1667 303.833,73.8333 303.5,74.5C 302.575,73.3595 301.741,73.3595 301,74.5C 300.683,72.6992 300.016,72.3659 299,73.5C 298.751,72.376 298.251,71.376 297.5,70.5C 296.8,73.0149 295.467,73.6816 293.5,72.5C 290.352,73.1404 290.019,74.1404 292.5,75.5C 291.282,75.109 290.448,75.7756 290,77.5C 289,75.8333 288,74.1667 287,72.5C 286.76,74.8516 285.927,76.8516 284.5,78.5C 284.712,73.557 283.712,72.8903 281.5,76.5C 277.519,75.4943 277.519,74.4943 281.5,73.5C 281.023,72.5224 280.357,71.6891 279.5,71C 280.554,69.6124 280.72,68.1124 280,66.5C 278.815,68.3772 277.815,70.3772 277,72.5C 276.667,72.1667 276.333,71.8333 276,71.5C 275.871,75.4604 274.705,75.2937 272.5,71C 272.957,70.586 273.291,70.086 273.5,69.5C 271.711,67.798 270.045,67.6313 268.5,69C 269.167,69.3333 269.833,69.6667 270.5,70C 268.487,73.5312 267.153,77.3645 266.5,81.5C 263.049,83.0484 262.716,85.0484 265.5,87.5C 264.277,88.6139 262.944,88.7805 261.5,88C 261.833,87.6667 262.167,87.3333 262.5,87C 260.094,84.2629 258.094,81.2629 256.5,78C 259.557,72.7153 258.057,70.8819 252,72.5C 249.848,70.7227 250.015,69.2227 252.5,68C 250.888,67.2797 249.388,67.4464 248,68.5C 247.544,69.7441 248.044,70.5774 249.5,71C 248.19,73.6158 246.524,75.9491 244.5,78C 245.784,78.6838 246.951,78.5171 248,77.5C 249.688,78.3247 249.855,79.3247 248.5,80.5C 245.518,81.9911 242.184,83.6578 238.5,85.5C 237.808,84.9747 237.308,84.3081 237,83.5C 236.601,83.7284 236.435,84.0618 236.5,84.5C 235.957,84.44 235.624,84.1067 235.5,83.5C 237.35,81.4824 239.35,79.6491 241.5,78C 240.426,77.2613 239.759,76.2613 239.5,75C 240.814,71.7674 240.147,68.9341 237.5,66.5C 236.794,67.8543 236.794,69.521 237.5,71.5C 236.482,72.8524 235.149,73.8524 233.5,74.5C 234.498,77.0278 235.331,77.0278 236,74.5C 236.5,75 237,75.5 237.5,76C 236.195,78.1476 234.362,79.6476 232,80.5C 231.508,81.549 231.674,82.549 232.5,83.5C 230.652,85.8517 228.652,87.185 226.5,87.5C 226.389,86.8826 226.056,86.3826 225.5,86C 227.004,84.5093 227.837,82.676 228,80.5C 228.667,81.1667 229.333,81.8333 230,82.5C 229.997,80.1443 229.497,77.8109 228.5,75.5C 229.982,74.8409 231.649,73.6742 233.5,72C 230.234,71.5935 229.901,70.0935 232.5,67.5C 233.086,67.7093 233.586,68.0426 234,68.5C 235.764,64.9674 237.431,60.9674 239,56.5C 240.509,55.9103 242.009,55.2436 243.5,54.5C 242.089,52.9825 242.256,51.6492 244,50.5C 245.008,50.9817 246.175,51.1484 247.5,51C 248.667,52.1667 249.833,53.3333 251,54.5C 252.227,52.2739 254.061,50.7739 256.5,50C 256.043,49.586 255.709,49.086 255.5,48.5C 257.653,45.0979 260.653,43.2646 264.5,43C 262.789,44.1332 262.289,45.6332 263,47.5C 265.027,47.0137 267.193,47.0137 269.5,47.5C 269.281,46.325 269.614,45.325 270.5,44.5C 275.447,43.5647 275.78,44.7313 271.5,48C 272.22,50.1223 273.387,50.6223 275,49.5C 275.915,50.3279 276.581,51.3279 277,52.5C 277.414,52.0426 277.914,51.7093 278.5,51.5C 280.556,53.0194 282.89,53.8528 285.5,54C 284.289,54.8928 284.289,55.7261 285.5,56.5C 287.645,55.3175 287.645,53.8175 285.5,52C 287.167,51 288.833,50 290.5,49C 289.5,48.6667 288.5,48.3333 287.5,48C 289.329,47.7265 290.829,46.8932 292,45.5C 293.566,44.9394 294.899,45.6061 296,47.5C 297.504,43.5036 300.337,41.6703 304.5,42C 301.572,46.8281 302.239,47.4948 306.5,44C 306.384,42.7318 306.051,41.3985 305.5,40C 309.212,39.8221 312.546,38.6555 315.5,36.5C 315.911,37.2624 316.077,38.2624 316,39.5C 318.545,38.1413 321.045,36.6413 323.5,35C 321.726,34.1192 321.06,32.9525 321.5,31.5C 320.201,32.09 319.368,33.09 319,34.5C 318.938,32.8853 318.771,31.5519 318.5,30.5C 322.014,24.1362 320.014,20.6362 312.5,20C 313.167,19.6667 313.833,19.3333 314.5,19C 311.722,17.6081 308.722,17.1081 305.5,17.5C 305.762,15.4362 306.929,14.1029 309,13.5C 309.249,14.624 309.749,15.624 310.5,16.5C 312.423,16.3696 314.256,16.0362 316,15.5C 316.667,18.1667 317.333,18.1667 318,15.5C 320.513,16.848 322.347,18.848 323.5,21.5C 324.231,17.8282 325.731,17.1615 328,19.5C 328.388,18.572 329.055,17.9054 330,17.5C 331.22,18.3881 332.553,19.0548 334,19.5C 335.327,17.8325 337.327,16.8325 340,16.5C 341.295,17.8412 341.795,19.1745 341.5,20.5C 342.251,19.624 342.751,18.624 343,17.5C 343.667,18.8333 344.333,18.8333 345,17.5C 344.852,18.825 345.018,19.9916 345.5,21C 342.972,22.3159 342.972,23.4826 345.5,24.5C 344.145,25.6753 344.312,26.6753 346,27.5C 346.182,24.1185 347.682,23.1185 350.5,24.5C 351.248,26.4159 351.248,28.4159 350.5,30.5 Z"/></g>
<g><path style="opacity:1" fill="#d5d5d5" d="M 334.5,22.5 C 336.512,23.2283 338.512,24.0617 340.5,25C 339.027,25.7096 338.36,26.8762 338.5,28.5C 340.604,28.2011 342.604,28.5344 344.5,29.5C 344.901,31.4342 345.901,32.9342 347.5,34C 346.5,34.5 345.5,35 344.5,35.5C 339.686,33.9008 339.186,34.9008 343,38.5C 343.308,37.6919 343.808,37.0253 344.5,36.5C 346.289,41.5184 347.456,41.5184 348,36.5C 350.109,37.0353 350.609,38.0353 349.5,39.5C 350.685,40.853 352.019,42.0197 353.5,43C 351.009,43.6259 351.009,44.4593 353.5,45.5C 352.609,46.5896 351.609,46.5896 350.5,45.5C 349.803,48.5734 347.97,50.5734 345,51.5C 344.667,50.8333 344.333,50.1667 344,49.5C 342.602,50.0509 341.268,50.3842 340,50.5C 338.983,47.972 337.816,47.972 336.5,50.5C 333.134,47.3175 329.134,45.4841 324.5,45C 329.767,42.5209 329.434,40.5209 323.5,39C 326.544,38.6411 326.878,37.9745 324.5,37C 326.743,35.9467 329.076,34.6134 331.5,33C 331.833,30 333.5,28.3333 336.5,28C 334.122,27.0255 334.456,26.3589 337.5,26C 335.937,25.2411 334.937,24.0744 334.5,22.5 Z"/></g>
<g><path style="opacity:1" fill="#eeefef" d="M 284.5,78.5 C 283.539,80.4384 284.205,81.9384 286.5,83C 285.151,83.7724 284.318,84.9391 284,86.5C 282.038,86.0306 280.205,86.6973 278.5,88.5C 280.401,89.935 280.734,91.6017 279.5,93.5C 277.622,93.3775 275.789,93.3775 274,93.5C 273.667,92.5 273.333,91.5 273,90.5C 272.667,90.8333 272.333,91.1667 272,91.5C 270.542,89.476 268.709,89.3093 266.5,91C 266.943,92.5185 266.276,93.6852 264.5,94.5C 263.833,93.5 263.167,92.5 262.5,91.5C 262.264,92.2472 261.93,93.0805 261.5,94C 260.906,94.4643 260.239,94.631 259.5,94.5C 258.472,93.9264 257.472,93.593 256.5,93.5C 257.376,92.7492 258.376,92.2492 259.5,92C 259.017,88.5379 257.85,88.0379 256,90.5C 255.25,89.8742 254.416,89.3742 253.5,89C 254.451,88.2825 254.617,87.4491 254,86.5C 252.981,87.6872 251.814,88.6872 250.5,89.5C 245.776,86.2868 244.442,87.2868 246.5,92.5C 243.518,92.1044 240.851,92.7711 238.5,94.5C 238.331,93.6034 237.998,92.6034 237.5,91.5C 233.489,92.8047 232.156,91.4713 233.5,87.5C 234.5,87.5 235.5,87.5 236.5,87.5C 236.5,86.5 236.5,85.5 236.5,84.5C 236.435,84.0618 236.601,83.7284 237,83.5C 237.308,84.3081 237.808,84.9747 238.5,85.5C 242.184,83.6578 245.518,81.9911 248.5,80.5C 249.855,79.3247 249.688,78.3247 248,77.5C 246.951,78.5171 245.784,78.6838 244.5,78C 246.524,75.9491 248.19,73.6158 249.5,71C 248.044,70.5774 247.544,69.7441 248,68.5C 249.388,67.4464 250.888,67.2797 252.5,68C 250.015,69.2227 249.848,70.7227 252,72.5C 258.057,70.8819 259.557,72.7153 256.5,78C 258.094,81.2629 260.094,84.2629 262.5,87C 262.167,87.3333 261.833,87.6667 261.5,88C 262.944,88.7805 264.277,88.6139 265.5,87.5C 262.716,85.0484 263.049,83.0484 266.5,81.5C 267.153,77.3645 268.487,73.5312 270.5,70C 269.833,69.6667 269.167,69.3333 268.5,69C 270.045,67.6313 271.711,67.798 273.5,69.5C 273.291,70.086 272.957,70.586 272.5,71C 274.705,75.2937 275.871,75.4604 276,71.5C 276.333,71.8333 276.667,72.1667 277,72.5C 277.815,70.3772 278.815,68.3772 280,66.5C 280.72,68.1124 280.554,69.6124 279.5,71C 280.357,71.6891 281.023,72.5224 281.5,73.5C 277.519,74.4943 277.519,75.4943 281.5,76.5C 283.712,72.8903 284.712,73.557 284.5,78.5 Z"/></g>
<g><path style="opacity:0.192" fill="#888888" d="M 215.5,83.5 C 215.829,86.2282 215.163,88.5615 213.5,90.5C 213.41,87.8478 214.076,85.5145 215.5,83.5 Z"/></g>
<g><path style="opacity:1" fill="#d2d3d2" d="M 236.5,84.5 C 236.5,85.5 236.5,86.5 236.5,87.5C 235.5,87.5 234.5,87.5 233.5,87.5C 232.883,87.3893 232.383,87.056 232,86.5C 231.993,88.6193 230.826,90.4526 228.5,92C 228.833,92.3333 229.167,92.6667 229.5,93C 227.928,95.038 226.928,97.3713 226.5,100C 226.501,101.399 226.835,102.899 227.5,104.5C 226.273,105.59 225.44,106.924 225,108.5C 224.667,107.5 224.333,106.5 224,105.5C 223.667,107.167 223.333,108.833 223,110.5C 222.667,110.167 222.333,109.833 222,109.5C 222.526,107.773 222.359,106.106 221.5,104.5C 222.791,103.527 222.791,102.527 221.5,101.5C 224.454,97.0271 226.121,92.3604 226.5,87.5C 228.652,87.185 230.652,85.8517 232.5,83.5C 231.674,82.549 231.508,81.549 232,80.5C 234.362,79.6476 236.195,78.1476 237.5,76C 237,75.5 236.5,75 236,74.5C 235.331,77.0278 234.498,77.0278 233.5,74.5C 235.149,73.8524 236.482,72.8524 237.5,71.5C 236.794,69.521 236.794,67.8543 237.5,66.5C 240.147,68.9341 240.814,71.7674 239.5,75C 239.759,76.2613 240.426,77.2613 241.5,78C 239.35,79.6491 237.35,81.4824 235.5,83.5C 235.624,84.1067 235.957,84.44 236.5,84.5 Z"/></g>
<g><path style="opacity:1" fill="#d0d0d0" d="M 275.5,170.5 C 275.389,171.117 275.056,171.617 274.5,172C 275.981,172.98 277.315,174.147 278.5,175.5C 279.192,174.975 279.692,174.308 280,173.5C 283.194,174.957 286.527,175.957 290,176.5C 290.456,175.256 289.956,174.423 288.5,174C 290.633,172.598 292.3,170.765 293.5,168.5C 295.158,171.161 296.824,173.827 298.5,176.5C 297.674,177.451 297.508,178.451 298,179.5C 299.594,178.427 301.094,177.427 302.5,176.5C 303.451,177.326 304.451,177.492 305.5,177C 303.833,176 302.167,175 300.5,174C 302.198,174.497 303.865,174.33 305.5,173.5C 307.35,174.242 308.016,175.242 307.5,176.5C 308.281,175.271 308.781,173.938 309,172.5C 308.968,174.672 309.801,176.838 311.5,179C 310.262,178.923 309.262,179.089 308.5,179.5C 308.968,181.134 309.968,182.3 311.5,183C 309.04,185.314 308.54,187.814 310,190.5C 310.75,189.874 311.584,189.374 312.5,189C 311.692,188.692 311.025,188.192 310.5,187.5C 310.846,186.304 311.346,186.304 312,187.5C 312.202,185.744 312.702,184.078 313.5,182.5C 316.028,183.517 316.028,184.684 313.5,186C 314.833,188 316.167,190 317.5,192C 316.288,193.107 316.621,193.607 318.5,193.5C 318.53,194.497 318.03,195.164 317,195.5C 314.597,195.175 312.764,194.008 311.5,192C 309.687,192.046 308.021,191.88 306.5,191.5C 306.167,191.833 305.833,192.167 305.5,192.5C 306.833,193.833 308.167,195.167 309.5,196.5C 305.466,197.979 301.299,198.979 297,199.5C 293.667,198.167 290.333,198.167 287,199.5C 283.002,198.782 279.336,197.449 276,195.5C 274.055,196.692 272.055,196.692 270,195.5C 268.69,196.13 267.856,197.13 267.5,198.5C 264.777,197.648 262.11,196.481 259.5,195C 255.217,192.385 251.217,189.385 247.5,186C 227.769,168.446 216.103,146.613 212.5,120.5C 213.434,121.568 213.768,122.901 213.5,124.5C 216.797,124.329 217.131,124.995 214.5,126.5C 217.679,128.424 218.013,130.59 215.5,133C 217.259,134.008 218.426,135.508 219,137.5C 219.248,134.081 219.748,130.747 220.5,127.5C 220.81,126.262 221.31,126.262 222,127.5C 223.333,129.5 224.667,131.5 226,133.5C 226.051,136.277 226.218,138.943 226.5,141.5C 227.72,142.711 228.887,142.711 230,141.5C 231.251,144.581 233.084,147.248 235.5,149.5C 236.452,148.467 236.452,147.3 235.5,146C 236.272,144.779 237.272,143.779 238.5,143C 237.359,142.259 237.359,141.425 238.5,140.5C 238.154,139.304 237.654,139.304 237,140.5C 236.529,138.754 235.862,137.087 235,135.5C 234.667,135.833 234.333,136.167 234,136.5C 233.163,134.156 231.829,132.156 230,130.5C 229.922,128.343 229.755,126.343 229.5,124.5C 230.025,123.808 230.692,123.308 231.5,123C 230.932,121.704 230.932,120.204 231.5,118.5C 230.994,114.965 230.328,111.465 229.5,108C 231.026,104.842 232.859,104.676 235,107.5C 237.068,105.438 239.568,104.272 242.5,104C 241.167,103.333 239.833,102.667 238.5,102C 238.957,101.586 239.291,101.086 239.5,100.5C 238.313,99.4805 237.313,98.3139 236.5,97C 237.449,96.3828 238.282,96.5494 239,97.5C 239.308,96.6919 239.808,96.0253 240.5,95.5C 241.5,96.5 242.5,97.5 243.5,98.5C 241.238,100.508 241.738,100.841 245,99.5C 245.833,100.333 246.667,101.167 247.5,102C 246.643,102.689 245.977,103.522 245.5,104.5C 247.124,105.869 247.624,107.536 247,109.5C 245.333,109.5 243.667,109.5 242,109.5C 241.667,108.167 241.333,106.833 241,105.5C 240.5,106 240,106.5 239.5,107C 240.337,108.011 240.67,109.178 240.5,110.5C 243.179,110.673 245.513,111.673 247.5,113.5C 248.308,111.577 248.808,109.577 249,107.5C 250.266,110.331 250.266,113.331 249,116.5C 248.444,114.405 247.944,114.238 247.5,116C 249.354,117.29 249.687,118.79 248.5,120.5C 249.649,124.484 251.982,127.484 255.5,129.5C 254.021,131.765 252.687,134.099 251.5,136.5C 252.183,139.461 253.016,139.795 254,137.5C 254.333,138.167 254.667,138.833 255,139.5C 256.503,139.165 257.836,139.165 259,139.5C 259.311,140.742 258.811,141.742 257.5,142.5C 258.706,144.794 259.706,147.127 260.5,149.5C 262.783,149.608 264.783,150.441 266.5,152C 266.043,152.414 265.709,152.914 265.5,153.5C 266.665,154.584 267.998,155.417 269.5,156C 268.833,156.333 268.167,156.667 267.5,157C 269.421,157.36 271.088,158.194 272.5,159.5C 272.333,159.833 272.167,160.167 272,160.5C 270.915,159.707 269.748,159.04 268.5,158.5C 267.289,159.274 267.289,160.107 268.5,161C 266.088,162.629 263.754,163.962 261.5,165C 262.646,165.645 263.646,166.478 264.5,167.5C 265.833,167.167 267.167,166.833 268.5,166.5C 269.696,166.846 269.696,167.346 268.5,168C 270.9,168.744 273.233,169.577 275.5,170.5 Z"/></g>
<g><path style="opacity:1" fill="#f3f3f3" d="M 409.5,78.5 C 411.129,80.8577 412.295,83.5243 413,86.5C 413.333,90.5 413.667,94.5 414,98.5C 416.97,129.516 407.803,156.183 386.5,178.5C 384.876,178.36 383.71,179.027 383,180.5C 382.667,179.833 382.333,179.167 382,178.5C 381.027,180.64 379.527,182.307 377.5,183.5C 376.5,183.167 375.833,182.5 375.5,181.5C 378.066,178.776 380.399,175.943 382.5,173C 382.167,172.5 381.833,172 381.5,171.5C 380.186,172.313 379.019,173.313 378,174.5C 377.072,170.845 375.405,170.179 373,172.5C 371.434,173.061 370.101,172.394 369,170.5C 366.904,171.715 367.071,172.549 369.5,173C 366.034,175.877 362.868,178.377 360,180.5C 359.922,178.343 359.755,176.343 359.5,174.5C 360.025,173.808 360.692,173.308 361.5,173C 361.384,171.732 361.051,170.398 360.5,169C 362.384,167.951 363.718,166.451 364.5,164.5C 365.313,163.347 366.313,163.347 367.5,164.5C 368.711,163.726 368.711,162.893 367.5,162C 370.5,160.333 372.833,158 374.5,155C 375.833,155.667 377.167,156.333 378.5,157C 379.447,154.288 380.947,151.454 383,148.5C 384.021,152.807 385.188,153.141 386.5,149.5C 393.002,148.982 393.002,147.148 386.5,144C 387.167,143.667 387.833,143.333 388.5,143C 387.5,140.909 388.167,139.243 390.5,138C 387.956,135.778 387.956,133.611 390.5,131.5C 390.263,128.937 389.763,128.937 389,131.5C 388.355,130.354 387.522,129.354 386.5,128.5C 387.665,127.416 388.998,126.583 390.5,126C 389.167,125.333 389.167,124.667 390.5,124C 389.833,123.667 389.167,123.333 388.5,123C 389.91,122.632 390.91,121.799 391.5,120.5C 383.766,116.854 383.1,111.854 389.5,105.5C 389.291,104.914 388.957,104.414 388.5,104C 389.962,104.063 391.295,104.729 392.5,106C 392.167,106.333 391.833,106.667 391.5,107C 392.784,107.684 393.951,107.517 395,106.5C 395.915,107.328 396.581,108.328 397,109.5C 397.667,106.833 398.333,106.833 399,109.5C 399.667,106.833 400.333,106.833 401,109.5C 401.829,106.326 400.829,105.326 398,106.5C 397.13,105.892 396.63,105.059 396.5,104C 397.649,102.27 397.649,100.604 396.5,99C 397.167,98.6667 397.833,98.3333 398.5,98C 397.044,97.5774 396.544,96.7441 397,95.5C 397.741,96.6405 398.575,96.6405 399.5,95.5C 400.167,96.1667 400.833,96.8333 401.5,97.5C 402.675,96.1451 403.675,96.3117 404.5,98C 402.071,98.4512 401.904,99.2845 404,100.5C 406.152,98.6763 408.652,98.343 411.5,99.5C 411.238,100.978 411.571,102.311 412.5,103.5C 412.833,102.833 413.167,102.167 413.5,101.5C 411.659,98.4094 410.993,95.2427 411.5,92C 410.258,91.6886 409.258,92.1886 408.5,93.5C 406.572,91.9501 404.739,90.2834 403,88.5C 402.667,88.8333 402.333,89.1667 402,89.5C 400.748,87.9991 399.748,86.3325 399,84.5C 398.002,87.0278 397.169,87.0278 396.5,84.5C 397.198,83.1374 397.198,81.9707 396.5,81C 400.09,78.6467 403.257,79.1467 406,82.5C 406.853,80.8753 407.853,80.5419 409,81.5C 409.483,80.552 409.649,79.552 409.5,78.5 Z"/></g>
<g><path style="opacity:1" fill="#e7e8e7" d="M 233.5,87.5 C 232.156,91.4713 233.489,92.8047 237.5,91.5C 237.998,92.6034 238.331,93.6034 238.5,94.5C 240.851,92.7711 243.518,92.1044 246.5,92.5C 244.442,87.2868 245.776,86.2868 250.5,89.5C 251.814,88.6872 252.981,87.6872 254,86.5C 254.617,87.4491 254.451,88.2825 253.5,89C 254.416,89.3742 255.25,89.8742 256,90.5C 257.85,88.0379 259.017,88.5379 259.5,92C 258.376,92.2492 257.376,92.7492 256.5,93.5C 257.472,93.593 258.472,93.9264 259.5,94.5C 258.71,95.7942 257.71,96.9609 256.5,98C 257,98.5 257.5,99 258,99.5C 259.385,98.4495 260.385,97.1161 261,95.5C 261.318,97.0609 262.151,98.2276 263.5,99C 262.833,99.3333 262.167,99.6667 261.5,100C 262.253,101.487 263.086,101.654 264,100.5C 266.126,103.428 265.293,105.261 261.5,106C 263.891,107.309 263.891,108.309 261.5,109C 264.167,110 264.167,111 261.5,112C 263.688,116.832 265.521,116.665 267,111.5C 267.972,113.305 269.139,114.972 270.5,116.5C 271.672,116.081 272.672,115.415 273.5,114.5C 272.167,113.5 270.833,112.5 269.5,111.5C 269.846,110.304 270.346,110.304 271,111.5C 271.249,110.376 271.749,109.376 272.5,108.5C 273.351,110.882 274.684,112.882 276.5,114.5C 273.949,117.874 271.282,121.041 268.5,124C 269.606,126.28 270.939,128.447 272.5,130.5C 273.167,129.5 273.833,128.5 274.5,127.5C 274.833,128.167 275.167,128.833 275.5,129.5C 274.612,131.155 274.112,132.822 274,134.5C 276.496,131.023 278.663,131.023 280.5,134.5C 278.199,136.163 278.199,137.997 280.5,140C 278.681,142.056 278.015,144.223 278.5,146.5C 279.834,146.529 281.167,147.363 282.5,149C 281.833,149.333 281.167,149.667 280.5,150C 281.667,150.5 282.5,151.333 283,152.5C 285.121,148.218 287.454,147.884 290,151.5C 291.16,149.203 292.16,149.536 293,152.5C 293.583,150.998 294.416,149.665 295.5,148.5C 297.611,150.491 298.944,152.491 299.5,154.5C 301.02,153.15 301.687,151.817 301.5,150.5C 302.816,153.028 303.983,153.028 305,150.5C 305.691,153.266 307.191,153.933 309.5,152.5C 310.833,156.5 312.167,156.5 313.5,152.5C 315.753,153.253 317.587,154.586 319,156.5C 319.414,156.043 319.914,155.709 320.5,155.5C 321.096,156.716 321.263,158.049 321,159.5C 321.915,158.672 322.581,157.672 323,156.5C 323.394,158.955 324.56,160.955 326.5,162.5C 327.251,161.624 327.751,160.624 328,159.5C 328.741,160.641 329.575,160.641 330.5,159.5C 331.251,160.376 331.751,161.376 332,162.5C 333.431,160.552 334.431,158.552 335,156.5C 334.259,157.641 333.425,157.641 332.5,156.5C 331.808,157.025 331.308,157.692 331,158.5C 329.513,157.747 329.346,156.914 330.5,156C 329.019,155.02 327.685,153.853 326.5,152.5C 325.833,153.167 325.167,153.833 324.5,154.5C 323.106,152.016 321.606,152.016 320,154.5C 319.592,153.002 318.425,151.502 316.5,150C 317.667,149.5 318.5,148.667 319,147.5C 319.98,148.981 321.147,150.315 322.5,151.5C 323.432,149.234 324.766,147.234 326.5,145.5C 327.327,147.162 328.493,148.495 330,149.5C 331.743,147.679 333.243,145.679 334.5,143.5C 334.833,144.333 335.167,145.167 335.5,146C 333.367,149.898 334.701,150.565 339.5,148C 336.833,147.333 336.833,146.667 339.5,146C 338.643,145.311 337.977,144.478 337.5,143.5C 340.086,141.957 342.586,140.291 345,138.5C 345.333,140.167 345.667,141.833 346,143.5C 346.333,142.833 346.667,142.167 347,141.5C 347.853,143.125 348.853,143.458 350,142.5C 350.492,143.549 350.326,144.549 349.5,145.5C 355.422,147.351 355.755,149.684 350.5,152.5C 351.274,153.711 352.107,153.711 353,152.5C 353.667,153.167 353.667,153.833 353,154.5C 350.679,157.269 347.846,159.436 344.5,161C 348.299,162.114 348.299,163.447 344.5,165C 344.728,165.399 345.062,165.565 345.5,165.5C 345.586,166.496 345.252,167.329 344.5,168C 348.806,171.11 348.473,171.943 343.5,170.5C 342.571,169.311 342.238,167.978 342.5,166.5C 340.387,167.256 338.387,167.423 336.5,167C 337.701,167.903 338.535,169.069 339,170.5C 339.414,170.043 339.914,169.709 340.5,169.5C 340.109,170.718 340.776,171.552 342.5,172C 341.333,172.5 340.5,173.333 340,174.5C 336,173.622 332,173.955 328,175.5C 327.853,174.397 327.02,173.23 325.5,172C 324.551,171.383 323.718,171.549 323,172.5C 323.661,170.965 323.994,169.298 324,167.5C 322.686,168.313 321.519,169.313 320.5,170.5C 318.958,169.253 317.458,169.253 316,170.5C 314.608,168.548 313.275,166.548 312,164.5C 310.992,164.982 309.825,165.148 308.5,165C 309.96,165.811 310.293,166.645 309.5,167.5C 307.062,164.431 304.062,163.431 300.5,164.5C 299.808,163.975 299.308,163.308 299,162.5C 297.062,163.86 295.396,163.527 294,161.5C 292.609,164.636 290.442,165.803 287.5,165C 285.699,166.387 285.032,167.887 285.5,169.5C 284.914,169.291 284.414,168.957 284,168.5C 281.521,171.683 278.854,172.016 276,169.5C 275.601,169.728 275.435,170.062 275.5,170.5C 273.233,169.577 270.9,168.744 268.5,168C 269.696,167.346 269.696,166.846 268.5,166.5C 267.167,166.833 265.833,167.167 264.5,167.5C 263.646,166.478 262.646,165.645 261.5,165C 263.754,163.962 266.088,162.629 268.5,161C 267.289,160.107 267.289,159.274 268.5,158.5C 269.748,159.04 270.915,159.707 272,160.5C 272.167,160.167 272.333,159.833 272.5,159.5C 271.088,158.194 269.421,157.36 267.5,157C 268.167,156.667 268.833,156.333 269.5,156C 267.998,155.417 266.665,154.584 265.5,153.5C 265.709,152.914 266.043,152.414 266.5,152C 264.783,150.441 262.783,149.608 260.5,149.5C 259.706,147.127 258.706,144.794 257.5,142.5C 258.811,141.742 259.311,140.742 259,139.5C 257.836,139.165 256.503,139.165 255,139.5C 254.667,138.833 254.333,138.167 254,137.5C 253.016,139.795 252.183,139.461 251.5,136.5C 252.687,134.099 254.021,131.765 255.5,129.5C 251.982,127.484 249.649,124.484 248.5,120.5C 249.687,118.79 249.354,117.29 247.5,116C 247.944,114.238 248.444,114.405 249,116.5C 250.266,113.331 250.266,110.331 249,107.5C 248.808,109.577 248.308,111.577 247.5,113.5C 245.513,111.673 243.179,110.673 240.5,110.5C 240.67,109.178 240.337,108.011 239.5,107C 240,106.5 240.5,106 241,105.5C 241.333,106.833 241.667,108.167 242,109.5C 243.667,109.5 245.333,109.5 247,109.5C 247.624,107.536 247.124,105.869 245.5,104.5C 245.977,103.522 246.643,102.689 247.5,102C 246.667,101.167 245.833,100.333 245,99.5C 241.738,100.841 241.238,100.508 243.5,98.5C 242.5,97.5 241.5,96.5 240.5,95.5C 239.808,96.0253 239.308,96.6919 239,97.5C 238.282,96.5494 237.449,96.3828 236.5,97C 237.313,98.3139 238.313,99.4805 239.5,100.5C 239.291,101.086 238.957,101.586 238.5,102C 239.833,102.667 241.167,103.333 242.5,104C 239.568,104.272 237.068,105.438 235,107.5C 232.859,104.676 231.026,104.842 229.5,108C 230.328,111.465 230.994,114.965 231.5,118.5C 230.932,120.204 230.932,121.704 231.5,123C 230.692,123.308 230.025,123.808 229.5,124.5C 229.755,126.343 229.922,128.343 230,130.5C 231.829,132.156 233.163,134.156 234,136.5C 234.333,136.167 234.667,135.833 235,135.5C 235.862,137.087 236.529,138.754 237,140.5C 237.654,139.304 238.154,139.304 238.5,140.5C 237.359,141.425 237.359,142.259 238.5,143C 237.272,143.779 236.272,144.779 235.5,146C 236.452,147.3 236.452,148.467 235.5,149.5C 233.084,147.248 231.251,144.581 230,141.5C 228.887,142.711 227.72,142.711 226.5,141.5C 226.218,138.943 226.051,136.277 226,133.5C 224.667,131.5 223.333,129.5 222,127.5C 221.31,126.262 220.81,126.262 220.5,127.5C 219.761,127.631 219.094,127.464 218.5,127C 219.779,120.413 219.779,114.079 218.5,108C 219.636,106.855 220.636,105.688 221.5,104.5C 222.359,106.106 222.526,107.773 222,109.5C 222.333,109.833 222.667,110.167 223,110.5C 223.333,108.833 223.667,107.167 224,105.5C 224.333,106.5 224.667,107.5 225,108.5C 225.44,106.924 226.273,105.59 227.5,104.5C 226.835,102.899 226.501,101.399 226.5,100C 226.928,97.3713 227.928,95.038 229.5,93C 229.167,92.6667 228.833,92.3333 228.5,92C 230.826,90.4526 231.993,88.6193 232,86.5C 232.383,87.056 232.883,87.3893 233.5,87.5 Z"/></g>
<g><path style="opacity:1" fill="#e0e1e1" d="M 345.5,165.5 C 346.315,166.429 347.148,167.429 348,168.5C 349.273,166.286 350.273,163.953 351,161.5C 353.157,164.078 354.323,164.078 354.5,161.5C 355.051,163.413 355.218,165.413 355,167.5C 356.406,166.332 357.572,166.665 358.5,168.5C 360.156,167.008 361.656,165.342 363,163.5C 363.383,164.056 363.883,164.389 364.5,164.5C 363.718,166.451 362.384,167.951 360.5,169C 361.051,170.398 361.384,171.732 361.5,173C 360.692,173.308 360.025,173.808 359.5,174.5C 359.755,176.343 359.922,178.343 360,180.5C 362.868,178.377 366.034,175.877 369.5,173C 367.071,172.549 366.904,171.715 369,170.5C 370.101,172.394 371.434,173.061 373,172.5C 375.405,170.179 377.072,170.845 378,174.5C 379.019,173.313 380.186,172.313 381.5,171.5C 381.833,172 382.167,172.5 382.5,173C 380.399,175.943 378.066,178.776 375.5,181.5C 375.833,182.5 376.5,183.167 377.5,183.5C 379.527,182.307 381.027,180.64 382,178.5C 382.333,179.167 382.667,179.833 383,180.5C 383.71,179.027 384.876,178.36 386.5,178.5C 373.544,191.618 358.211,200.785 340.5,206C 337.568,206.953 334.568,207.453 331.5,207.5C 330.833,207.5 330.167,207.5 329.5,207.5C 330.832,206.17 331.665,204.503 332,202.5C 332.333,202.833 332.667,203.167 333,203.5C 334.243,201.167 335.909,200.5 338,201.5C 341.299,199.505 343.633,197.172 345,194.5C 345.483,195.448 345.649,196.448 345.5,197.5C 347.75,197.819 349.75,197.319 351.5,196C 350.833,195.667 350.167,195.333 349.5,195C 350.711,193.887 350.711,192.72 349.5,191.5C 347.482,189.65 345.649,187.65 344,185.5C 343.311,186.357 342.478,187.023 341.5,187.5C 338.3,187.434 335.133,187.434 332,187.5C 330.326,189.009 328.66,189.676 327,189.5C 326.339,187.084 324.839,185.418 322.5,184.5C 323.911,182.983 323.744,181.649 322,180.5C 320.383,181.641 318.55,182.474 316.5,183C 318.83,184.075 320.163,185.575 320.5,187.5C 319.835,189.101 319.501,190.601 319.5,192C 323.121,191.092 324.621,192.592 324,196.5C 322.417,195.029 320.583,194.029 318.5,193.5C 316.621,193.607 316.288,193.107 317.5,192C 316.167,190 314.833,188 313.5,186C 316.028,184.684 316.028,183.517 313.5,182.5C 312.702,184.078 312.202,185.744 312,187.5C 311.346,186.304 310.846,186.304 310.5,187.5C 311.025,188.192 311.692,188.692 312.5,189C 311.584,189.374 310.75,189.874 310,190.5C 308.54,187.814 309.04,185.314 311.5,183C 309.968,182.3 308.968,181.134 308.5,179.5C 309.262,179.089 310.262,178.923 311.5,179C 309.801,176.838 308.968,174.672 309,172.5C 308.781,173.938 308.281,175.271 307.5,176.5C 308.016,175.242 307.35,174.242 305.5,173.5C 303.865,174.33 302.198,174.497 300.5,174C 302.167,175 303.833,176 305.5,177C 304.451,177.492 303.451,177.326 302.5,176.5C 301.094,177.427 299.594,178.427 298,179.5C 297.508,178.451 297.674,177.451 298.5,176.5C 296.824,173.827 295.158,171.161 293.5,168.5C 292.3,170.765 290.633,172.598 288.5,174C 289.956,174.423 290.456,175.256 290,176.5C 286.527,175.957 283.194,174.957 280,173.5C 279.692,174.308 279.192,174.975 278.5,175.5C 277.315,174.147 275.981,172.98 274.5,172C 275.056,171.617 275.389,171.117 275.5,170.5C 275.435,170.062 275.601,169.728 276,169.5C 278.854,172.016 281.521,171.683 284,168.5C 284.414,168.957 284.914,169.291 285.5,169.5C 285.032,167.887 285.699,166.387 287.5,165C 290.442,165.803 292.609,164.636 294,161.5C 295.396,163.527 297.062,163.86 299,162.5C 299.308,163.308 299.808,163.975 300.5,164.5C 304.062,163.431 307.062,164.431 309.5,167.5C 310.293,166.645 309.96,165.811 308.5,165C 309.825,165.148 310.992,164.982 312,164.5C 313.275,166.548 314.608,168.548 316,170.5C 317.458,169.253 318.958,169.253 320.5,170.5C 321.519,169.313 322.686,168.313 324,167.5C 323.994,169.298 323.661,170.965 323,172.5C 323.718,171.549 324.551,171.383 325.5,172C 327.02,173.23 327.853,174.397 328,175.5C 332,173.955 336,173.622 340,174.5C 340.5,173.333 341.333,172.5 342.5,172C 340.776,171.552 340.109,170.718 340.5,169.5C 339.914,169.709 339.414,170.043 339,170.5C 338.535,169.069 337.701,167.903 336.5,167C 338.387,167.423 340.387,167.256 342.5,166.5C 342.238,167.978 342.571,169.311 343.5,170.5C 348.473,171.943 348.806,171.11 344.5,168C 345.252,167.329 345.586,166.496 345.5,165.5 Z"/></g>
<g><path style="opacity:1" fill="#e8eae9" d="M 329.5,207.5 C 326.175,207.831 322.841,208.164 319.5,208.5C 316.989,208.712 314.822,208.045 313,206.5C 312.5,207 312,207.5 311.5,208C 307.179,208.499 302.846,208.666 298.5,208.5C 287.36,207.378 277.026,204.045 267.5,198.5C 267.856,197.13 268.69,196.13 270,195.5C 272.055,196.692 274.055,196.692 276,195.5C 279.336,197.449 283.002,198.782 287,199.5C 290.333,198.167 293.667,198.167 297,199.5C 301.299,198.979 305.466,197.979 309.5,196.5C 308.167,195.167 306.833,193.833 305.5,192.5C 305.833,192.167 306.167,191.833 306.5,191.5C 308.021,191.88 309.687,192.046 311.5,192C 312.764,194.008 314.597,195.175 317,195.5C 318.03,195.164 318.53,194.497 318.5,193.5C 320.583,194.029 322.417,195.029 324,196.5C 324.621,192.592 323.121,191.092 319.5,192C 319.501,190.601 319.835,189.101 320.5,187.5C 320.163,185.575 318.83,184.075 316.5,183C 318.55,182.474 320.383,181.641 322,180.5C 323.744,181.649 323.911,182.983 322.5,184.5C 324.839,185.418 326.339,187.084 327,189.5C 328.66,189.676 330.326,189.009 332,187.5C 335.133,187.434 338.3,187.434 341.5,187.5C 342.478,187.023 343.311,186.357 344,185.5C 345.649,187.65 347.482,189.65 349.5,191.5C 350.711,192.72 350.711,193.887 349.5,195C 350.167,195.333 350.833,195.667 351.5,196C 349.75,197.319 347.75,197.819 345.5,197.5C 345.649,196.448 345.483,195.448 345,194.5C 343.633,197.172 341.299,199.505 338,201.5C 335.909,200.5 334.243,201.167 333,203.5C 332.667,203.167 332.333,202.833 332,202.5C 331.665,204.503 330.832,206.17 329.5,207.5 Z"/></g>
<g><path style="opacity:0.804" fill="#a4a4a4" d="M 329.5,207.5 C 330.167,207.5 330.833,207.5 331.5,207.5C 330.391,208.29 329.058,208.79 327.5,209C 317.658,209.825 307.991,209.658 298.5,208.5C 302.846,208.666 307.179,208.499 311.5,208C 312,207.5 312.5,207 313,206.5C 314.822,208.045 316.989,208.712 319.5,208.5C 322.841,208.164 326.175,207.831 329.5,207.5 Z"/></g>
<filter id="myblurfilter" width="110%" height="100%">
  	<feGaussianBlur stdDeviation="2" result="blur" />
  </filter>
</svg>
